<?xml version="1.0" encoding="UTF-8" standalone="no"?><svg xmlns="http://www.w3.org/2000/svg" xmlns:xlink="http://www.w3.org/1999/xlink" clip-rule="evenodd" stroke-miterlimit="10" viewBox="0 0 720 540"><desc>SVG generated by Keynote</desc><defs></defs><g transform="matrix(1.00, 0.00, -0.00, -1.00, 0.0, 540.0)"><g><clipPath id="clip0x6180004b90e0"><path d="M 0.0 540.0 L 720.0 540.0 L 720.0 0.0 L 0.0 0.0 Z M 0.0 540.0 "></path></clipPath><g clip-path="url(#clip0x6180004b90e0)"><image xlink:href="../../6AC2B813-AF1A-46FD-8D6A-0A73D525C09B/assets/C6CE51432B2EA1633842659F5EC57925.png" width="1024.00" height="768.00" transform="matrix(0.70, 0.00, -0.00, -0.70, 0.0, 540.0)"></image></g></g><text xml:space="preserve" font-family="Verdana,Verdana" font-size="32.0" fill="#1897D6" transform="matrix(1.00, 0.00, -0.00, -1.00, 267.5, 256.8)">D</text><text xml:space="preserve" font-family="Verdana,Verdana" font-size="32.0" fill="#1897D6" transform="matrix(1.00, 0.00, -0.00, -1.00, 292.2, 256.8)">e</text><text xml:space="preserve" font-family="Verdana,Verdana" font-size="32.0" fill="#1897D6" transform="matrix(1.00, 0.00, -0.00, -1.00, 311.2, 256.8)">m</text><text xml:space="preserve" font-family="Verdana,Verdana" font-size="32.0" fill="#1897D6" transform="matrix(1.00, 0.00, -0.00, -1.00, 342.3, 256.8)">o</text><text xml:space="preserve" font-family="Verdana,Verdana" font-size="32.0" fill="#1897D6" transform="matrix(1.00, 0.00, -0.00, -1.00, 361.7, 256.8)"> </text><text xml:space="preserve" font-family="Verdana,Verdana" font-size="32.0" fill="#1897D6" transform="matrix(1.00, 0.00, -0.00, -1.00, 373.0, 256.8)">T</text><text xml:space="preserve" font-family="Verdana,Verdana" font-size="32.0" fill="#1897D6" transform="matrix(1.00, 0.00, -0.00, -1.00, 392.7, 256.8)">i</text><text xml:space="preserve" font-family="Verdana,Verdana" font-size="32.0" fill="#1897D6" transform="matrix(1.00, 0.00, -0.00, -1.00, 401.5, 256.8)">m</text><text xml:space="preserve" font-family="Verdana,Verdana" font-size="32.0" fill="#1897D6" transform="matrix(1.00, 0.00, -0.00, -1.00, 432.6, 256.8)">e</text><text xml:space="preserve" font-family="Arial-BoldMT,Arial" font-weight="bold" font-size="10.0" fill="#FFFFFF" transform="matrix(1.00, 0.00, -0.00, -1.00, 666.9, 8.9)">1</text><text xml:space="preserve" font-family="Arial-BoldMT,Arial" font-weight="bold" font-size="10.0" fill="#FFFFFF" transform="matrix(1.00, 0.00, -0.00, -1.00, 671.9, 8.9)">1</text></g></svg>