<?xml version="1.0" encoding="UTF-8" standalone="no"?><svg xmlns="http://www.w3.org/2000/svg" xmlns:xlink="http://www.w3.org/1999/xlink" clip-rule="evenodd" stroke-miterlimit="10" viewBox="0 0 720 540"><desc>SVG generated by Keynote</desc><defs></defs><g transform="matrix(1.00, 0.00, -0.00, -1.00, 0.0, 540.0)"><g><clipPath id="clip0x6000008bea80"><path d="M 0.0 540.0 L 720.0 540.0 L 720.0 0.0 L 0.0 0.0 Z M 0.0 540.0 "></path></clipPath><g clip-path="url(#clip0x6000008bea80)"><image xlink:href="../../6AC2B813-AF1A-46FD-8D6A-0A73D525C09B/assets/09F0450D5A7B0BE43FA6B5CF2E6903FA.png" width="1024.00" height="768.00" transform="matrix(0.70, 0.00, -0.00, -0.70, 0.0, 540.0)"></image></g></g><image xlink:href="../../6AC2B813-AF1A-46FD-8D6A-0A73D525C09B/assets/217C879448336E1F6C65B65FBF210197.png" width="1236.00" height="230.00" transform="matrix(0.37, 0.00, -0.00, -0.37, 18.6, 519.9)"></image><text xml:space="preserve" font-family="Arial-BoldMT,Arial" font-weight="bold" font-size="30.0" fill="#FFFFFF" transform="matrix(1.00, 0.00, -0.00, -1.00, 114.5, 286.3)">C</text><text xml:space="preserve" font-family="Arial-BoldMT,Arial" font-weight="bold" font-size="30.0" fill="#FFFFFF" transform="matrix(1.00, 0.00, -0.00, -1.00, 136.2, 286.3)">l</text><text xml:space="preserve" font-family="Arial-BoldMT,Arial" font-weight="bold" font-size="30.0" fill="#FFFFFF" transform="matrix(1.00, 0.00, -0.00, -1.00, 144.5, 286.3)">o</text><text xml:space="preserve" font-family="Arial-BoldMT,Arial" font-weight="bold" font-size="30.0" fill="#FFFFFF" transform="matrix(1.00, 0.00, -0.00, -1.00, 162.8, 286.3)">u</text><text xml:space="preserve" font-family="Arial-BoldMT,Arial" font-weight="bold" font-size="30.0" fill="#FFFFFF" transform="matrix(1.00, 0.00, -0.00, -1.00, 181.1, 286.3)">d</text><text xml:space="preserve" font-family="Arial-BoldMT,Arial" font-weight="bold" font-size="30.0" fill="#FFFFFF" transform="matrix(1.00, 0.00, -0.00, -1.00, 199.4, 286.3)"> </text><text xml:space="preserve" font-family="Arial-BoldMT,Arial" font-weight="bold" font-size="30.0" fill="#FFFFFF" transform="matrix(1.00, 0.00, -0.00, -1.00, 207.8, 286.3)">F</text><text xml:space="preserve" font-family="Arial-BoldMT,Arial" font-weight="bold" font-size="30.0" fill="#FFFFFF" transform="matrix(1.00, 0.00, -0.00, -1.00, 226.1, 286.3)">o</text><text xml:space="preserve" font-family="Arial-BoldMT,Arial" font-weight="bold" font-size="30.0" fill="#FFFFFF" transform="matrix(1.00, 0.00, -0.00, -1.00, 244.4, 286.3)">u</text><text xml:space="preserve" font-family="Arial-BoldMT,Arial" font-weight="bold" font-size="30.0" fill="#FFFFFF" transform="matrix(1.00, 0.00, -0.00, -1.00, 262.7, 286.3)">n</text><text xml:space="preserve" font-family="Arial-BoldMT,Arial" font-weight="bold" font-size="30.0" fill="#FFFFFF" transform="matrix(1.00, 0.00, -0.00, -1.00, 281.1, 286.3)">d</text><text xml:space="preserve" font-family="Arial-BoldMT,Arial" font-weight="bold" font-size="30.0" fill="#FFFFFF" transform="matrix(1.00, 0.00, -0.00, -1.00, 299.4, 286.3)">r</text><text xml:space="preserve" font-family="Arial-BoldMT,Arial" font-weight="bold" font-size="30.0" fill="#FFFFFF" transform="matrix(1.00, 0.00, -0.00, -1.00, 311.1, 286.3)">y</text><text xml:space="preserve" font-family="Arial-BoldMT,Arial" font-weight="bold" font-size="30.0" fill="#FFFFFF" transform="matrix(1.00, 0.00, -0.00, -1.00, 327.7, 286.3)"> </text><text xml:space="preserve" font-family="Arial-BoldMT,Arial" font-weight="bold" font-size="30.0" fill="#FFFFFF" transform="matrix(1.00, 0.00, -0.00, -1.00, 336.1, 286.3)">C</text><text xml:space="preserve" font-family="Arial-BoldMT,Arial" font-weight="bold" font-size="30.0" fill="#FFFFFF" transform="matrix(1.00, 0.00, -0.00, -1.00, 357.7, 286.3)">o</text><text xml:space="preserve" font-family="Arial-BoldMT,Arial" font-weight="bold" font-size="30.0" fill="#FFFFFF" transform="matrix(1.00, 0.00, -0.00, -1.00, 376.1, 286.3)">m</text><text xml:space="preserve" font-family="Arial-BoldMT,Arial" font-weight="bold" font-size="30.0" fill="#FFFFFF" transform="matrix(1.00, 0.00, -0.00, -1.00, 402.7, 286.3)">m</text><text xml:space="preserve" font-family="Arial-BoldMT,Arial" font-weight="bold" font-size="30.0" fill="#FFFFFF" transform="matrix(1.00, 0.00, -0.00, -1.00, 429.4, 286.3)">u</text><text xml:space="preserve" font-family="Arial-BoldMT,Arial" font-weight="bold" font-size="30.0" fill="#FFFFFF" transform="matrix(1.00, 0.00, -0.00, -1.00, 447.7, 286.3)">n</text><text xml:space="preserve" font-family="Arial-BoldMT,Arial" font-weight="bold" font-size="30.0" fill="#FFFFFF" transform="matrix(1.00, 0.00, -0.00, -1.00, 466.1, 286.3)">i</text><text xml:space="preserve" font-family="Arial-BoldMT,Arial" font-weight="bold" font-size="30.0" fill="#FFFFFF" transform="matrix(1.00, 0.00, -0.00, -1.00, 474.4, 286.3)">t</text><text xml:space="preserve" font-family="Arial-BoldMT,Arial" font-weight="bold" font-size="30.0" fill="#FFFFFF" transform="matrix(1.00, 0.00, -0.00, -1.00, 484.4, 286.3)">y</text><text xml:space="preserve" font-family="Arial-BoldMT,Arial" font-weight="bold" font-size="30.0" fill="#FFFFFF" transform="matrix(1.00, 0.00, -0.00, -1.00, 501.1, 286.3)"> </text><text xml:space="preserve" font-family="Arial-BoldMT,Arial" font-weight="bold" font-size="30.0" fill="#FFFFFF" transform="matrix(1.00, 0.00, -0.00, -1.00, 509.4, 286.3)">U</text><text xml:space="preserve" font-family="Arial-BoldMT,Arial" font-weight="bold" font-size="30.0" fill="#FFFFFF" transform="matrix(1.00, 0.00, -0.00, -1.00, 531.1, 286.3)">p</text><text xml:space="preserve" font-family="Arial-BoldMT,Arial" font-weight="bold" font-size="30.0" fill="#FFFFFF" transform="matrix(1.00, 0.00, -0.00, -1.00, 549.4, 286.3)">d</text><text xml:space="preserve" font-family="Arial-BoldMT,Arial" font-weight="bold" font-size="30.0" fill="#FFFFFF" transform="matrix(1.00, 0.00, -0.00, -1.00, 567.7, 286.3)">a</text><text xml:space="preserve" font-family="Arial-BoldMT,Arial" font-weight="bold" font-size="30.0" fill="#FFFFFF" transform="matrix(1.00, 0.00, -0.00, -1.00, 584.4, 286.3)">t</text><text xml:space="preserve" font-family="Arial-BoldMT,Arial" font-weight="bold" font-size="30.0" fill="#FFFFFF" transform="matrix(1.00, 0.00, -0.00, -1.00, 594.4, 286.3)">e</text></g></svg>